<svg width="78" height="13" viewBox="0 0 78 13" fill="none" xmlns="http://www.w3.org/2000/svg">
<mask id="path-1-outside-1_3_2" maskUnits="userSpaceOnUse" x="-1" y="-1" width="80" height="15" fill="black">
<rect fill="white" x="-1" y="-1" width="80" height="15"/>
<path d="M2.86137 8.025H7.42137V10.275H2.86137V8.025ZM0.521367 12L4.13637 1.785H6.70137L10.0614 12H7.61637L4.97637 3.45H5.86137L2.95137 12H0.521367ZM12.9654 12.195C12.4454 12.195 11.9854 12.095 11.5854 11.895C11.1854 11.685 10.8704 11.395 10.6404 11.025C10.4204 10.645 10.3104 10.215 10.3104 9.735C10.3104 9.215 10.4304 8.775 10.6704 8.415C10.9204 8.045 11.2454 7.765 11.6454 7.575C12.0554 7.375 12.5054 7.275 12.9954 7.275C13.7254 7.275 14.3204 7.445 14.7804 7.785C15.2404 8.115 15.5404 8.605 15.6804 9.255L14.6904 9.03V7.365C14.6904 7.115 14.6004 6.9 14.4204 6.72C14.2404 6.54 13.9604 6.45 13.5804 6.45C13.3104 6.45 13.0004 6.485 12.6504 6.555C12.3004 6.625 11.9304 6.755 11.5404 6.945L10.8504 5.22C11.2904 5 11.7754 4.82 12.3054 4.68C12.8354 4.53 13.3854 4.455 13.9554 4.455C14.6454 4.455 15.2254 4.58 15.6954 4.83C16.1754 5.08 16.5354 5.435 16.7754 5.895C17.0154 6.345 17.1354 6.88 17.1354 7.5V12H15.0954L14.6304 10.545L15.6804 10.215C15.5304 10.825 15.2304 11.31 14.7804 11.67C14.3404 12.02 13.7354 12.195 12.9654 12.195ZM13.7904 10.545C14.0704 10.545 14.2954 10.47 14.4654 10.32C14.6354 10.17 14.7204 9.975 14.7204 9.735C14.7204 9.505 14.6354 9.315 14.4654 9.165C14.2954 9.015 14.0704 8.94 13.7904 8.94C13.4904 8.94 13.2554 9.015 13.0854 9.165C12.9254 9.315 12.8454 9.505 12.8454 9.735C12.8454 9.975 12.9254 10.17 13.0854 10.32C13.2554 10.47 13.4904 10.545 13.7904 10.545ZM20.2358 4.65L20.8658 6.705V12H18.4358V4.65H20.2358ZM20.2958 8.13L19.9058 7.965V6.045L20.0558 5.88C20.1758 5.7 20.3508 5.5 20.5808 5.28C20.8208 5.06 21.0908 4.87 21.3908 4.71C21.7008 4.54 22.0208 4.455 22.3508 4.455C22.5108 4.455 22.6558 4.47 22.7858 4.5C22.9158 4.52 23.0158 4.555 23.0858 4.605V6.825H22.5908C21.9708 6.825 21.4658 6.93 21.0758 7.14C20.6958 7.34 20.4358 7.67 20.2958 8.13ZM25.9439 12.195C25.4239 12.195 24.9639 12.095 24.5639 11.895C24.1639 11.685 23.8489 11.395 23.6189 11.025C23.3989 10.645 23.2889 10.215 23.2889 9.735C23.2889 9.215 23.4089 8.775 23.6489 8.415C23.8989 8.045 24.2239 7.765 24.6239 7.575C25.0339 7.375 25.4839 7.275 25.9739 7.275C26.7039 7.275 27.2989 7.445 27.7589 7.785C28.2189 8.115 28.5189 8.605 28.6589 9.255L27.6689 9.03V7.365C27.6689 7.115 27.5789 6.9 27.3989 6.72C27.2189 6.54 26.9389 6.45 26.5589 6.45C26.2889 6.45 25.9789 6.485 25.6289 6.555C25.2789 6.625 24.9089 6.755 24.5189 6.945L23.8289 5.22C24.2689 5 24.7539 4.82 25.2839 4.68C25.8139 4.53 26.3639 4.455 26.9339 4.455C27.6239 4.455 28.2039 4.58 28.6739 4.83C29.1539 5.08 29.5139 5.435 29.7539 5.895C29.9939 6.345 30.1139 6.88 30.1139 7.5V12H28.0739L27.6089 10.545L28.6589 10.215C28.5089 10.825 28.2089 11.31 27.7589 11.67C27.3189 12.02 26.7139 12.195 25.9439 12.195ZM26.7689 10.545C27.0489 10.545 27.2739 10.47 27.4439 10.32C27.6139 10.17 27.6989 9.975 27.6989 9.735C27.6989 9.505 27.6139 9.315 27.4439 9.165C27.2739 9.015 27.0489 8.94 26.7689 8.94C26.4689 8.94 26.2339 9.015 26.0639 9.165C25.9039 9.315 25.8239 9.505 25.8239 9.735C25.8239 9.975 25.9039 10.17 26.0639 10.32C26.2339 10.47 26.4689 10.545 26.7689 10.545ZM31.4143 12V4.65H33.2143L33.6943 6.165L32.8093 6.075C33.0593 5.795 33.3443 5.535 33.6643 5.295C33.9943 5.045 34.3543 4.845 34.7443 4.695C35.1343 4.535 35.5443 4.455 35.9743 4.455C36.4543 4.455 36.8393 4.54 37.1293 4.71C37.4293 4.88 37.6593 5.11 37.8193 5.4C37.9793 5.68 38.0893 6 38.1493 6.36C38.2193 6.72 38.2543 7.095 38.2543 7.485V12H35.8243V7.77C35.8243 7.39 35.7643 7.14 35.6443 7.02C35.5243 6.9 35.3693 6.84 35.1793 6.84C34.9093 6.84 34.6443 6.915 34.3843 7.065C34.1343 7.205 33.8793 7.405 33.6193 7.665L33.0943 6.45H33.8443V12H31.4143ZM40.2043 12V7.77C40.2043 7.39 40.1443 7.14 40.0243 7.02C39.9143 6.9 39.7643 6.84 39.5743 6.84C39.3143 6.84 39.0543 6.915 38.7943 7.065C38.5343 7.205 38.2743 7.405 38.0143 7.665L37.2193 6.075C37.4693 5.795 37.7543 5.535 38.0743 5.295C38.4043 5.045 38.7643 4.845 39.1543 4.695C39.5443 4.535 39.9493 4.455 40.3693 4.455C40.8493 4.455 41.2393 4.54 41.5393 4.71C41.8393 4.88 42.0693 5.11 42.2293 5.4C42.3893 5.68 42.4993 6 42.5593 6.36C42.6193 6.72 42.6493 7.095 42.6493 7.485V12H40.2043ZM48.153 12.195C47.523 12.195 46.968 12.04 46.488 11.73C46.018 11.42 45.648 10.975 45.378 10.395C45.118 9.815 44.988 9.125 44.988 8.325C44.988 7.475 45.118 6.765 45.378 6.195C45.638 5.615 46.003 5.18 46.473 4.89C46.943 4.6 47.498 4.455 48.138 4.455C48.788 4.455 49.368 4.62 49.878 4.95C50.398 5.28 50.803 5.74 51.093 6.33C51.383 6.91 51.528 7.575 51.528 8.325C51.528 9.065 51.383 9.73 51.093 10.32C50.813 10.91 50.418 11.37 49.908 11.7C49.408 12.03 48.823 12.195 48.153 12.195ZM43.968 12V1.785H46.398V6.825H46.263V9.99H46.398L45.768 12H43.968ZM47.673 9.855C48.063 9.855 48.388 9.715 48.648 9.435C48.918 9.145 49.053 8.775 49.053 8.325C49.053 7.885 48.918 7.52 48.648 7.23C48.388 6.93 48.063 6.78 47.673 6.78C47.283 6.78 46.953 6.93 46.683 7.23C46.413 7.52 46.278 7.885 46.278 8.325C46.278 8.775 46.413 9.145 46.683 9.435C46.953 9.715 47.283 9.855 47.673 9.855ZM52.4202 12V1.785H54.8502V12H52.4202ZM56.9802 12V7.77C56.9802 7.39 56.9202 7.14 56.8002 7.02C56.6802 6.9 56.5052 6.84 56.2752 6.84C56.1052 6.84 55.9252 6.875 55.7352 6.945C55.5452 7.005 55.3552 7.1 55.1652 7.23C54.9852 7.35 54.8052 7.495 54.6252 7.665L53.8152 6.075C54.0652 5.795 54.3552 5.535 54.6852 5.295C55.0252 5.045 55.3902 4.845 55.7802 4.695C56.1802 4.535 56.6002 4.455 57.0402 4.455C57.5302 4.455 57.9302 4.54 58.2402 4.71C58.5502 4.88 58.7902 5.11 58.9602 5.4C59.1302 5.68 59.2452 6 59.3052 6.36C59.3752 6.72 59.4102 7.095 59.4102 7.485V12H56.9802ZM66.377 8.025H70.937V10.275H66.377V8.025ZM64.037 12L67.652 1.785H70.217L73.577 12H71.132L68.492 3.45H69.377L66.467 12H64.037ZM76.8675 12H74.4225V4.65H76.8675V12ZM74.2425 2.325C74.2425 1.895 74.3725 1.555 74.6325 1.305C74.8925 1.045 75.2325 0.915 75.6525 0.915C76.0825 0.915 76.4225 1.045 76.6725 1.305C76.9225 1.555 77.0475 1.895 77.0475 2.325C77.0475 2.735 76.9225 3.07 76.6725 3.33C76.4225 3.58 76.0825 3.705 75.6525 3.705C75.2325 3.705 74.8925 3.58 74.6325 3.33C74.3725 3.07 74.2425 2.735 74.2425 2.325Z"/>
</mask>
<path d="M2.86137 8.025H7.42137V10.275H2.86137V8.025ZM0.521367 12L4.13637 1.785H6.70137L10.0614 12H7.61637L4.97637 3.45H5.86137L2.95137 12H0.521367ZM12.9654 12.195C12.4454 12.195 11.9854 12.095 11.5854 11.895C11.1854 11.685 10.8704 11.395 10.6404 11.025C10.4204 10.645 10.3104 10.215 10.3104 9.735C10.3104 9.215 10.4304 8.775 10.6704 8.415C10.9204 8.045 11.2454 7.765 11.6454 7.575C12.0554 7.375 12.5054 7.275 12.9954 7.275C13.7254 7.275 14.3204 7.445 14.7804 7.785C15.2404 8.115 15.5404 8.605 15.6804 9.255L14.6904 9.03V7.365C14.6904 7.115 14.6004 6.9 14.4204 6.72C14.2404 6.54 13.9604 6.45 13.5804 6.45C13.3104 6.45 13.0004 6.485 12.6504 6.555C12.3004 6.625 11.9304 6.755 11.5404 6.945L10.8504 5.22C11.2904 5 11.7754 4.82 12.3054 4.68C12.8354 4.53 13.3854 4.455 13.9554 4.455C14.6454 4.455 15.2254 4.58 15.6954 4.83C16.1754 5.08 16.5354 5.435 16.7754 5.895C17.0154 6.345 17.1354 6.88 17.1354 7.5V12H15.0954L14.6304 10.545L15.6804 10.215C15.5304 10.825 15.2304 11.31 14.7804 11.67C14.3404 12.02 13.7354 12.195 12.9654 12.195ZM13.7904 10.545C14.0704 10.545 14.2954 10.47 14.4654 10.32C14.6354 10.17 14.7204 9.975 14.7204 9.735C14.7204 9.505 14.6354 9.315 14.4654 9.165C14.2954 9.015 14.0704 8.94 13.7904 8.94C13.4904 8.94 13.2554 9.015 13.0854 9.165C12.9254 9.315 12.8454 9.505 12.8454 9.735C12.8454 9.975 12.9254 10.17 13.0854 10.32C13.2554 10.47 13.4904 10.545 13.7904 10.545ZM20.2358 4.65L20.8658 6.705V12H18.4358V4.65H20.2358ZM20.2958 8.13L19.9058 7.965V6.045L20.0558 5.88C20.1758 5.7 20.3508 5.5 20.5808 5.28C20.8208 5.06 21.0908 4.87 21.3908 4.71C21.7008 4.54 22.0208 4.455 22.3508 4.455C22.5108 4.455 22.6558 4.47 22.7858 4.5C22.9158 4.52 23.0158 4.555 23.0858 4.605V6.825H22.5908C21.9708 6.825 21.4658 6.93 21.0758 7.14C20.6958 7.34 20.4358 7.67 20.2958 8.13ZM25.9439 12.195C25.4239 12.195 24.9639 12.095 24.5639 11.895C24.1639 11.685 23.8489 11.395 23.6189 11.025C23.3989 10.645 23.2889 10.215 23.2889 9.735C23.2889 9.215 23.4089 8.775 23.6489 8.415C23.8989 8.045 24.2239 7.765 24.6239 7.575C25.0339 7.375 25.4839 7.275 25.9739 7.275C26.7039 7.275 27.2989 7.445 27.7589 7.785C28.2189 8.115 28.5189 8.605 28.6589 9.255L27.6689 9.03V7.365C27.6689 7.115 27.5789 6.9 27.3989 6.72C27.2189 6.54 26.9389 6.45 26.5589 6.45C26.2889 6.45 25.9789 6.485 25.6289 6.555C25.2789 6.625 24.9089 6.755 24.5189 6.945L23.8289 5.22C24.2689 5 24.7539 4.82 25.2839 4.68C25.8139 4.53 26.3639 4.455 26.9339 4.455C27.6239 4.455 28.2039 4.58 28.6739 4.83C29.1539 5.08 29.5139 5.435 29.7539 5.895C29.9939 6.345 30.1139 6.88 30.1139 7.5V12H28.0739L27.6089 10.545L28.6589 10.215C28.5089 10.825 28.2089 11.31 27.7589 11.67C27.3189 12.02 26.7139 12.195 25.9439 12.195ZM26.7689 10.545C27.0489 10.545 27.2739 10.47 27.4439 10.32C27.6139 10.17 27.6989 9.975 27.6989 9.735C27.6989 9.505 27.6139 9.315 27.4439 9.165C27.2739 9.015 27.0489 8.94 26.7689 8.94C26.4689 8.94 26.2339 9.015 26.0639 9.165C25.9039 9.315 25.8239 9.505 25.8239 9.735C25.8239 9.975 25.9039 10.17 26.0639 10.32C26.2339 10.47 26.4689 10.545 26.7689 10.545ZM31.4143 12V4.65H33.2143L33.6943 6.165L32.8093 6.075C33.0593 5.795 33.3443 5.535 33.6643 5.295C33.9943 5.045 34.3543 4.845 34.7443 4.695C35.1343 4.535 35.5443 4.455 35.9743 4.455C36.4543 4.455 36.8393 4.54 37.1293 4.71C37.4293 4.88 37.6593 5.11 37.8193 5.4C37.9793 5.68 38.0893 6 38.1493 6.36C38.2193 6.72 38.2543 7.095 38.2543 7.485V12H35.8243V7.77C35.8243 7.39 35.7643 7.14 35.6443 7.02C35.5243 6.9 35.3693 6.84 35.1793 6.84C34.9093 6.84 34.6443 6.915 34.3843 7.065C34.1343 7.205 33.8793 7.405 33.6193 7.665L33.0943 6.45H33.8443V12H31.4143ZM40.2043 12V7.77C40.2043 7.39 40.1443 7.14 40.0243 7.02C39.9143 6.9 39.7643 6.84 39.5743 6.84C39.3143 6.84 39.0543 6.915 38.7943 7.065C38.5343 7.205 38.2743 7.405 38.0143 7.665L37.2193 6.075C37.4693 5.795 37.7543 5.535 38.0743 5.295C38.4043 5.045 38.7643 4.845 39.1543 4.695C39.5443 4.535 39.9493 4.455 40.3693 4.455C40.8493 4.455 41.2393 4.54 41.5393 4.71C41.8393 4.88 42.0693 5.11 42.2293 5.4C42.3893 5.68 42.4993 6 42.5593 6.36C42.6193 6.72 42.6493 7.095 42.6493 7.485V12H40.2043ZM48.153 12.195C47.523 12.195 46.968 12.04 46.488 11.73C46.018 11.42 45.648 10.975 45.378 10.395C45.118 9.815 44.988 9.125 44.988 8.325C44.988 7.475 45.118 6.765 45.378 6.195C45.638 5.615 46.003 5.18 46.473 4.89C46.943 4.6 47.498 4.455 48.138 4.455C48.788 4.455 49.368 4.62 49.878 4.95C50.398 5.28 50.803 5.74 51.093 6.33C51.383 6.91 51.528 7.575 51.528 8.325C51.528 9.065 51.383 9.73 51.093 10.32C50.813 10.91 50.418 11.37 49.908 11.7C49.408 12.03 48.823 12.195 48.153 12.195ZM43.968 12V1.785H46.398V6.825H46.263V9.99H46.398L45.768 12H43.968ZM47.673 9.855C48.063 9.855 48.388 9.715 48.648 9.435C48.918 9.145 49.053 8.775 49.053 8.325C49.053 7.885 48.918 7.52 48.648 7.23C48.388 6.93 48.063 6.78 47.673 6.78C47.283 6.78 46.953 6.93 46.683 7.23C46.413 7.52 46.278 7.885 46.278 8.325C46.278 8.775 46.413 9.145 46.683 9.435C46.953 9.715 47.283 9.855 47.673 9.855ZM52.4202 12V1.785H54.8502V12H52.4202ZM56.9802 12V7.77C56.9802 7.39 56.9202 7.14 56.8002 7.02C56.6802 6.9 56.5052 6.84 56.2752 6.84C56.1052 6.84 55.9252 6.875 55.7352 6.945C55.5452 7.005 55.3552 7.1 55.1652 7.23C54.9852 7.35 54.8052 7.495 54.6252 7.665L53.8152 6.075C54.0652 5.795 54.3552 5.535 54.6852 5.295C55.0252 5.045 55.3902 4.845 55.7802 4.695C56.1802 4.535 56.6002 4.455 57.0402 4.455C57.5302 4.455 57.9302 4.54 58.2402 4.71C58.5502 4.88 58.7902 5.11 58.9602 5.4C59.1302 5.68 59.2452 6 59.3052 6.36C59.3752 6.72 59.4102 7.095 59.4102 7.485V12H56.9802ZM66.377 8.025H70.937V10.275H66.377V8.025ZM64.037 12L67.652 1.785H70.217L73.577 12H71.132L68.492 3.45H69.377L66.467 12H64.037ZM76.8675 12H74.4225V4.65H76.8675V12ZM74.2425 2.325C74.2425 1.895 74.3725 1.555 74.6325 1.305C74.8925 1.045 75.2325 0.915 75.6525 0.915C76.0825 0.915 76.4225 1.045 76.6725 1.305C76.9225 1.555 77.0475 1.895 77.0475 2.325C77.0475 2.735 76.9225 3.07 76.6725 3.33C76.4225 3.58 76.0825 3.705 75.6525 3.705C75.2325 3.705 74.8925 3.58 74.6325 3.33C74.3725 3.07 74.2425 2.735 74.2425 2.325Z" fill="white"/>
<path d="M2.86137 8.025V7.025H1.86137V8.025H2.86137ZM7.42137 8.025H8.42137V7.025H7.42137V8.025ZM7.42137 10.275V11.275H8.42137V10.275H7.42137ZM2.86137 10.275H1.86137V11.275H2.86137V10.275ZM0.521367 12L-0.421342 11.6664L-0.893297 13H0.521367V12ZM4.13637 1.785V0.784999H3.42949L3.19366 1.45138L4.13637 1.785ZM6.70137 1.785L7.6513 1.47254L7.42515 0.784999H6.70137V1.785ZM10.0614 12V13H11.443L11.0113 11.6875L10.0614 12ZM7.61637 12L6.66088 12.295L6.87855 13H7.61637V12ZM4.97637 3.45V2.45H3.62101L4.02088 3.74503L4.97637 3.45ZM5.86137 3.45L6.80804 3.7722L7.25805 2.45H5.86137V3.45ZM2.95137 12V13H3.66735L3.89804 12.3222L2.95137 12ZM2.86137 9.025H7.42137V7.025H2.86137V9.025ZM6.42137 8.025V10.275H8.42137V8.025H6.42137ZM7.42137 9.275H2.86137V11.275H7.42137V9.275ZM3.86137 10.275V8.025H1.86137V10.275H3.86137ZM1.46408 12.3336L5.07908 2.11862L3.19366 1.45138L-0.421342 11.6664L1.46408 12.3336ZM4.13637 2.785H6.70137V0.784999H4.13637V2.785ZM5.75144 2.09746L9.11144 12.3125L11.0113 11.6875L7.6513 1.47254L5.75144 2.09746ZM10.0614 11H7.61637V13H10.0614V11ZM8.57186 11.705L5.93186 3.15497L4.02088 3.74503L6.66088 12.295L8.57186 11.705ZM4.97637 4.45H5.86137V2.45H4.97637V4.45ZM4.9147 3.1278L2.0047 11.6778L3.89804 12.3222L6.80804 3.7722L4.9147 3.1278ZM2.95137 11H0.521367V13H2.95137V11ZM11.5854 11.895L11.1206 12.7804L11.1293 12.785L11.1382 12.7894L11.5854 11.895ZM10.6404 11.025L9.77496 11.526L9.78282 11.5396L9.79111 11.5529L10.6404 11.025ZM10.6704 8.415L9.84179 7.85513L9.83834 7.8603L10.6704 8.415ZM11.6454 7.575L12.0745 8.47833L12.0838 8.47377L11.6454 7.575ZM14.7804 7.785L14.186 8.58918L14.1917 8.5934L14.1975 8.59754L14.7804 7.785ZM15.6804 9.255L15.4588 10.2301L16.9882 10.5777L16.658 9.04444L15.6804 9.255ZM14.6904 9.03H13.6904V9.82823L14.4688 10.0051L14.6904 9.03ZM14.4204 6.72L15.1275 6.01289L15.1275 6.01289L14.4204 6.72ZM12.6504 6.555L12.8465 7.53558L12.8465 7.53558L12.6504 6.555ZM11.5404 6.945L10.6119 7.31639L11.0114 8.31508L11.9784 7.84399L11.5404 6.945ZM10.8504 5.22L10.4032 4.32557L9.58019 4.73707L9.92191 5.59139L10.8504 5.22ZM12.3054 4.68L12.5608 5.64684L12.5693 5.6446L12.5777 5.64221L12.3054 4.68ZM15.6954 4.83L15.2258 5.71291L15.2335 5.71691L15.6954 4.83ZM16.7754 5.895L15.8888 6.35758L15.893 6.36559L16.7754 5.895ZM17.1354 12V13H18.1354V12H17.1354ZM15.0954 12L14.1429 12.3044L14.3652 13H15.0954V12ZM14.6304 10.545L14.3306 9.59101L13.372 9.89228L13.6779 10.8494L14.6304 10.545ZM15.6804 10.215L16.6515 10.4538L17.0758 8.72822L15.3806 9.26101L15.6804 10.215ZM14.7804 11.67L15.4029 12.4526L15.4051 12.4509L14.7804 11.67ZM14.4654 10.32L13.8038 9.57016L13.8038 9.57016L14.4654 10.32ZM14.4654 9.165L13.8038 9.91484L13.8038 9.91484L14.4654 9.165ZM13.0854 9.165L12.4238 8.41516L12.4125 8.42514L12.4014 8.43546L13.0854 9.165ZM13.0854 10.32L12.4014 11.0495L12.4125 11.0599L12.4238 11.0698L13.0854 10.32ZM12.9654 11.195C12.5754 11.195 12.2728 11.1207 12.0326 11.0006L11.1382 12.7894C11.698 13.0693 12.3154 13.195 12.9654 13.195V11.195ZM12.0502 11.0096C11.8018 10.8792 11.6221 10.7101 11.4897 10.4971L9.79111 11.5529C10.1187 12.0799 10.569 12.4908 11.1206 12.7804L12.0502 11.0096ZM11.5058 10.524C11.3821 10.3102 11.3104 10.0559 11.3104 9.735H9.31039C9.31039 10.3741 9.45873 10.9798 9.77496 11.526L11.5058 10.524ZM11.3104 9.735C11.3104 9.372 11.3924 9.13475 11.5024 8.9697L9.83834 7.8603C9.46837 8.41525 9.31039 9.058 9.31039 9.735H11.3104ZM11.499 8.97486C11.6498 8.75168 11.8373 8.5909 12.0744 8.47828L11.2163 6.67172C10.6534 6.9391 10.191 7.33832 9.8418 7.85514L11.499 8.97486ZM12.0838 8.47377C12.3473 8.34524 12.6458 8.275 12.9954 8.275V6.275C12.365 6.275 11.7635 6.40476 11.207 6.67623L12.0838 8.47377ZM12.9954 8.275C13.5709 8.275 13.9404 8.40767 14.186 8.58918L15.3748 6.98082C14.7003 6.48233 13.8799 6.275 12.9954 6.275V8.275ZM14.1975 8.59754C14.4213 8.75809 14.6054 9.01329 14.7028 9.46556L16.658 9.04444C16.4754 8.19671 16.0595 7.47191 15.3633 6.97246L14.1975 8.59754ZM15.902 8.27987L14.912 8.05487L14.4688 10.0051L15.4588 10.2301L15.902 8.27987ZM15.6904 9.03V7.365H13.6904V9.03H15.6904ZM15.6904 7.365C15.6904 6.84441 15.4912 6.37659 15.1275 6.01289L13.7133 7.42711C13.7172 7.43106 13.7163 7.43081 13.713 7.42587C13.7095 7.42077 13.7048 7.41279 13.7004 7.40239C13.6961 7.39196 13.6933 7.38211 13.6917 7.37408C13.6902 7.36623 13.6904 7.36275 13.6904 7.365H15.6904ZM15.1275 6.01289C14.6849 5.57029 14.0962 5.45 13.5804 5.45V7.45C13.6952 7.45 13.7523 7.46404 13.7694 7.46953C13.7817 7.47349 13.7519 7.46574 13.7133 7.42711L15.1275 6.01289ZM13.5804 5.45C13.2274 5.45 12.8496 5.49536 12.4543 5.57442L12.8465 7.53558C13.1512 7.47464 13.3934 7.45 13.5804 7.45V5.45ZM12.4543 5.57442C12.0048 5.66431 11.5534 5.82632 11.1024 6.04601L11.9784 7.84399C12.3074 7.68368 12.596 7.58569 12.8465 7.53558L12.4543 5.57442ZM12.4689 6.57361L11.7789 4.84861L9.92191 5.59139L10.6119 7.31639L12.4689 6.57361ZM11.2976 6.11443C11.6698 5.92832 12.0896 5.7713 12.5608 5.64684L12.05 3.71316C11.4612 3.8687 10.911 4.07168 10.4032 4.32557L11.2976 6.11443ZM12.5777 5.64221C13.0161 5.51814 13.4742 5.455 13.9554 5.455V3.455C13.2965 3.455 12.6547 3.54185 12.0331 3.71779L12.5777 5.64221ZM13.9554 5.455C14.5287 5.455 14.9369 5.55919 15.2258 5.71287L16.165 3.94713C15.5139 3.60081 14.7621 3.455 13.9554 3.455V5.455ZM15.2335 5.71691C15.5401 5.87662 15.7478 6.08731 15.8888 6.35757L17.662 5.43243C17.323 4.78269 16.8107 4.28338 16.1573 3.94309L15.2335 5.71691ZM15.893 6.36559C16.0408 6.64269 16.1354 7.00908 16.1354 7.5H18.1354C18.1354 6.75092 17.99 6.04731 17.6577 5.42441L15.893 6.36559ZM16.1354 7.5V12H18.1354V7.5H16.1354ZM17.1354 11H15.0954V13H17.1354V11ZM16.0479 11.6956L15.5829 10.2406L13.6779 10.8494L14.1429 12.3044L16.0479 11.6956ZM14.9302 11.499L15.9802 11.169L15.3806 9.26101L14.3306 9.59101L14.9302 11.499ZM14.7093 9.97621C14.6069 10.3927 14.4179 10.6793 14.1557 10.8891L15.4051 12.4509C16.0428 11.9407 16.4539 11.2573 16.6515 10.4538L14.7093 9.97621ZM14.1579 10.8874C13.9503 11.0525 13.5921 11.195 12.9654 11.195V13.195C13.8787 13.195 14.7305 12.9875 15.4029 12.4526L14.1579 10.8874ZM13.7904 11.545C14.2544 11.545 14.7341 11.4165 15.127 11.0698L13.8038 9.57016C13.8127 9.56225 13.8227 9.55519 13.8326 9.54952C13.8425 9.5439 13.8498 9.5411 13.8529 9.54007C13.8589 9.53808 13.8418 9.545 13.7904 9.545V11.545ZM15.127 11.0698C15.526 10.7178 15.7204 10.2429 15.7204 9.735H13.7204C13.7204 9.73512 13.7209 9.70543 13.7399 9.66166C13.7596 9.61647 13.7865 9.58538 13.8038 9.57016L15.127 11.0698ZM15.7204 9.735C15.7204 9.22285 15.5157 8.75812 15.127 8.41516L13.8038 9.91484C13.7913 9.90381 13.7647 9.87512 13.7438 9.82837C13.7231 9.78198 13.7204 9.74586 13.7204 9.735H15.7204ZM15.127 8.41516C14.7341 8.06846 14.2544 7.94 13.7904 7.94V9.94C13.8418 9.94 13.8589 9.94692 13.8529 9.94493C13.8498 9.9439 13.8425 9.9411 13.8326 9.93548C13.8227 9.92981 13.8127 9.92275 13.8038 9.91484L15.127 8.41516ZM13.7904 7.94C13.3268 7.94 12.8287 8.05785 12.4238 8.41516L13.747 9.91484C13.7343 9.92602 13.7217 9.93463 13.7107 9.94072C13.7054 9.94365 13.7011 9.9457 13.698 9.94704C13.6949 9.94837 13.6932 9.94891 13.6932 9.94891C13.6938 9.94871 13.7221 9.94 13.7904 9.94V7.94ZM12.4014 8.43546C12.029 8.78462 11.8454 9.24374 11.8454 9.735H13.8454C13.8454 9.73786 13.8444 9.76676 13.827 9.80806C13.8092 9.85043 13.785 9.87986 13.7693 9.89454L12.4014 8.43546ZM11.8454 9.735C11.8454 10.2224 12.0196 10.6915 12.4014 11.0495L13.7693 9.59046C13.7895 9.60942 13.8139 9.64119 13.8306 9.68169C13.8464 9.72019 13.8454 9.74275 13.8454 9.735H11.8454ZM12.4238 11.0698C12.8287 11.4271 13.3268 11.545 13.7904 11.545V9.545C13.7221 9.545 13.6938 9.53629 13.6932 9.53609C13.6932 9.53609 13.6949 9.53663 13.698 9.53796C13.7011 9.5393 13.7054 9.54135 13.7107 9.54428C13.7217 9.55037 13.7343 9.55898 13.747 9.57016L12.4238 11.0698ZM20.2358 4.65L21.1919 4.35689L20.9752 3.65H20.2358V4.65ZM20.8658 6.705H21.8658V6.55516L21.8219 6.41189L20.8658 6.705ZM20.8658 12V13H21.8658V12H20.8658ZM18.4358 12H17.4358V13H18.4358V12ZM18.4358 4.65V3.65H17.4358V4.65H18.4358ZM20.2958 8.13L19.9062 9.05097L20.9291 9.48374L21.2525 8.42116L20.2958 8.13ZM19.9058 7.965H18.9058V8.62774L19.5162 8.88597L19.9058 7.965ZM19.9058 6.045L19.1659 5.37233L18.9058 5.65839V6.045H19.9058ZM20.0558 5.88L20.7958 6.55267L20.8462 6.49714L20.8879 6.4347L20.0558 5.88ZM20.5808 5.28L19.9051 4.54285L19.8973 4.55002L19.8896 4.55736L20.5808 5.28ZM21.3908 4.71L21.8614 5.59241L21.8717 5.58681L21.3908 4.71ZM22.7858 4.5L22.561 5.47439L22.5971 5.48273L22.6338 5.48837L22.7858 4.5ZM23.0858 4.605H24.0858V4.09038L23.6671 3.79127L23.0858 4.605ZM23.0858 6.825V7.825H24.0858V6.825H23.0858ZM21.0758 7.14L21.5416 8.02496L21.5499 8.02047L21.0758 7.14ZM19.2797 4.9431L19.9097 6.9981L21.8219 6.41189L21.1919 4.35689L19.2797 4.9431ZM19.8658 6.705V12H21.8658V6.705H19.8658ZM20.8658 11H18.4358V13H20.8658V11ZM19.4358 12V4.65H17.4358V12H19.4358ZM18.4358 5.65H20.2358V3.65H18.4358V5.65ZM20.6855 7.20903L20.2955 7.04403L19.5162 8.88597L19.9062 9.05097L20.6855 7.20903ZM20.9058 7.965V6.045H18.9058V7.965H20.9058ZM20.6458 6.71767L20.7958 6.55267L19.3159 5.20733L19.1659 5.37233L20.6458 6.71767ZM20.8879 6.4347C20.9531 6.33689 21.0727 6.19334 21.272 6.00264L19.8896 4.55736C19.629 4.80666 19.3986 5.0631 19.2238 5.3253L20.8879 6.4347ZM21.2565 6.01715C21.4319 5.85645 21.6323 5.71453 21.8614 5.59235L20.9202 3.82765C20.5493 4.02547 20.2098 4.26355 19.9051 4.54285L21.2565 6.01715ZM21.8717 5.58681C22.0451 5.49169 22.2008 5.455 22.3508 5.455V3.455C21.8408 3.455 21.3565 3.58831 20.91 3.83319L21.8717 5.58681ZM22.3508 5.455C22.4496 5.455 22.5176 5.46438 22.561 5.47439L23.0107 3.52561C22.7941 3.47562 22.572 3.455 22.3508 3.455V5.455ZM22.6338 5.48837C22.652 5.49117 22.6478 5.49205 22.628 5.48511C22.6084 5.47826 22.562 5.45976 22.5046 5.41873L23.6671 3.79127C23.42 3.61476 23.1482 3.54398 22.9379 3.51163L22.6338 5.48837ZM22.0858 4.605V6.825H24.0858V4.605H22.0858ZM23.0858 5.825H22.5908V7.825H23.0858V5.825ZM22.5908 5.825C21.8678 5.825 21.184 5.94599 20.6017 6.25953L21.5499 8.02047C21.7476 7.91401 22.0738 7.825 22.5908 7.825V5.825ZM20.6101 6.25508C19.9644 6.5949 19.5467 7.1568 19.3391 7.83884L21.2525 8.42116C21.3249 8.1832 21.4272 8.0851 21.5416 8.02492L20.6101 6.25508ZM24.5639 11.895L24.0991 12.7804L24.1078 12.785L24.1167 12.7894L24.5639 11.895ZM23.6189 11.025L22.7535 11.526L22.7613 11.5396L22.7696 11.5529L23.6189 11.025ZM23.6489 8.415L22.8203 7.85513L22.8169 7.8603L23.6489 8.415ZM24.6239 7.575L25.053 8.47833L25.0623 8.47377L24.6239 7.575ZM27.7589 7.785L27.1645 8.58918L27.1702 8.5934L27.176 8.59754L27.7589 7.785ZM28.6589 9.255L28.4373 10.2301L29.9667 10.5777L29.6365 9.04444L28.6589 9.255ZM27.6689 9.03H26.6689V9.82823L27.4473 10.0051L27.6689 9.03ZM27.3989 6.72L28.106 6.01289L28.106 6.01289L27.3989 6.72ZM25.6289 6.555L25.825 7.53558L25.825 7.53558L25.6289 6.555ZM24.5189 6.945L23.5904 7.31639L23.9899 8.31508L24.9569 7.84399L24.5189 6.945ZM23.8289 5.22L23.3817 4.32557L22.5587 4.73707L22.9004 5.59139L23.8289 5.22ZM25.2839 4.68L25.5393 5.64684L25.5478 5.6446L25.5562 5.64221L25.2839 4.68ZM28.6739 4.83L28.2043 5.71291L28.212 5.71691L28.6739 4.83ZM29.7539 5.895L28.8673 6.35758L28.8716 6.36559L29.7539 5.895ZM30.1139 12V13H31.1139V12H30.1139ZM28.0739 12L27.1214 12.3044L27.3437 13H28.0739V12ZM27.6089 10.545L27.3091 9.59101L26.3505 9.89228L26.6564 10.8494L27.6089 10.545ZM28.6589 10.215L29.63 10.4538L30.0543 8.72822L28.3591 9.26101L28.6589 10.215ZM27.7589 11.67L28.3814 12.4526L28.3836 12.4509L27.7589 11.67ZM27.4439 10.32L26.7823 9.57016L26.7823 9.57016L27.4439 10.32ZM27.4439 9.165L26.7823 9.91484L26.7823 9.91484L27.4439 9.165ZM26.0639 9.165L25.4023 8.41516L25.391 8.42514L25.38 8.43546L26.0639 9.165ZM26.0639 10.32L25.38 11.0495L25.391 11.0599L25.4023 11.0698L26.0639 10.32ZM25.9439 11.195C25.5539 11.195 25.2513 11.1207 25.0111 11.0006L24.1167 12.7894C24.6765 13.0693 25.2939 13.195 25.9439 13.195V11.195ZM25.0287 11.0096C24.7803 10.8792 24.6006 10.7101 24.4682 10.4971L22.7696 11.5529C23.0972 12.0799 23.5475 12.4908 24.0991 12.7804L25.0287 11.0096ZM24.4843 10.524C24.3606 10.3102 24.2889 10.0559 24.2889 9.735H22.2889C22.2889 10.3741 22.4372 10.9798 22.7535 11.526L24.4843 10.524ZM24.2889 9.735C24.2889 9.372 24.3709 9.13475 24.481 8.9697L22.8169 7.8603C22.4469 8.41525 22.2889 9.058 22.2889 9.735H24.2889ZM24.4775 8.97486C24.6283 8.75168 24.8159 8.5909 25.053 8.47828L24.1948 6.67172C23.632 6.9391 23.1695 7.33832 22.8203 7.85514L24.4775 8.97486ZM25.0623 8.47377C25.3258 8.34524 25.6243 8.275 25.9739 8.275V6.275C25.3435 6.275 24.742 6.40476 24.1855 6.67623L25.0623 8.47377ZM25.9739 8.275C26.5494 8.275 26.919 8.40767 27.1645 8.58918L28.3533 6.98082C27.6789 6.48233 26.8584 6.275 25.9739 6.275V8.275ZM27.176 8.59754C27.3998 8.75809 27.5839 9.01329 27.6813 9.46556L29.6365 9.04444C29.4539 8.19671 29.038 7.47191 28.3418 6.97246L27.176 8.59754ZM28.8805 8.27987L27.8905 8.05487L27.4473 10.0051L28.4373 10.2301L28.8805 8.27987ZM28.6689 9.03V7.365H26.6689V9.03H28.6689ZM28.6689 7.365C28.6689 6.84441 28.4697 6.37659 28.106 6.01289L26.6918 7.42711C26.6958 7.43106 26.6948 7.43081 26.6915 7.42587C26.688 7.42077 26.6833 7.41279 26.679 7.40239C26.6746 7.39196 26.6718 7.38211 26.6703 7.37408C26.6687 7.36623 26.6689 7.36275 26.6689 7.365H28.6689ZM28.106 6.01289C27.6634 5.57029 27.0747 5.45 26.5589 5.45V7.45C26.6737 7.45 26.7308 7.46404 26.7479 7.46953C26.7602 7.47349 26.7304 7.46574 26.6918 7.42711L28.106 6.01289ZM26.5589 5.45C26.2059 5.45 25.8281 5.49536 25.4328 5.57442L25.825 7.53558C26.1297 7.47464 26.3719 7.45 26.5589 7.45V5.45ZM25.4328 5.57442C24.9833 5.66431 24.5319 5.82632 24.0809 6.04601L24.9569 7.84399C25.2859 7.68368 25.5745 7.58569 25.825 7.53558L25.4328 5.57442ZM25.4474 6.57361L24.7574 4.84861L22.9004 5.59139L23.5904 7.31639L25.4474 6.57361ZM24.2761 6.11443C24.6483 5.92832 25.0681 5.7713 25.5393 5.64684L25.0285 3.71316C24.4397 3.8687 23.8895 4.07168 23.3817 4.32557L24.2761 6.11443ZM25.5562 5.64221C25.9946 5.51814 26.4528 5.455 26.9339 5.455V3.455C26.2751 3.455 25.6332 3.54185 25.0116 3.71779L25.5562 5.64221ZM26.9339 5.455C27.5072 5.455 27.9154 5.55919 28.2043 5.71287L29.1435 3.94713C28.4924 3.60081 27.7406 3.455 26.9339 3.455V5.455ZM28.212 5.71691C28.5186 5.87662 28.7263 6.08731 28.8673 6.35757L30.6405 5.43243C30.3015 4.78269 29.7892 4.28338 29.1358 3.94309L28.212 5.71691ZM28.8716 6.36559C29.0193 6.64269 29.1139 7.00908 29.1139 7.5H31.1139C31.1139 6.75092 30.9685 6.04731 30.6363 5.42441L28.8716 6.36559ZM29.1139 7.5V12H31.1139V7.5H29.1139ZM30.1139 11H28.0739V13H30.1139V11ZM29.0264 11.6956L28.5614 10.2406L26.6564 10.8494L27.1214 12.3044L29.0264 11.6956ZM27.9087 11.499L28.9587 11.169L28.3591 9.26101L27.3091 9.59101L27.9087 11.499ZM27.6878 9.97621C27.5854 10.3927 27.3965 10.6793 27.1342 10.8891L28.3836 12.4509C29.0214 11.9407 29.4324 11.2573 29.63 10.4538L27.6878 9.97621ZM27.1364 10.8874C26.9288 11.0525 26.5706 11.195 25.9439 11.195V13.195C26.8572 13.195 27.709 12.9875 28.3814 12.4526L27.1364 10.8874ZM26.7689 11.545C27.233 11.545 27.7126 11.4165 28.1055 11.0698L26.7823 9.57016C26.7912 9.56225 26.8012 9.55519 26.8111 9.54952C26.821 9.5439 26.8283 9.5411 26.8314 9.54007C26.8374 9.53808 26.8203 9.545 26.7689 9.545V11.545ZM28.1055 11.0698C28.5046 10.7178 28.6989 10.2429 28.6989 9.735H26.6989C26.6989 9.73512 26.6994 9.70543 26.7185 9.66166C26.7382 9.61647 26.765 9.58538 26.7823 9.57016L28.1055 11.0698ZM28.6989 9.735C28.6989 9.22285 28.4942 8.75812 28.1055 8.41516L26.7823 9.91484C26.7698 9.90381 26.7433 9.87512 26.7223 9.82837C26.7016 9.78198 26.6989 9.74586 26.6989 9.735H28.6989ZM28.1055 8.41516C27.7126 8.06846 27.233 7.94 26.7689 7.94V9.94C26.8203 9.94 26.8374 9.94692 26.8314 9.94493C26.8283 9.9439 26.821 9.9411 26.8111 9.93548C26.8012 9.92981 26.7912 9.92275 26.7823 9.91484L28.1055 8.41516ZM26.7689 7.94C26.3053 7.94 25.8072 8.05785 25.4023 8.41516L26.7255 9.91484C26.7128 9.92602 26.7002 9.93463 26.6892 9.94072C26.684 9.94365 26.6796 9.9457 26.6765 9.94704C26.6734 9.94837 26.6717 9.94891 26.6717 9.94891C26.6723 9.94871 26.7006 9.94 26.7689 9.94V7.94ZM25.38 8.43546C25.0075 8.78462 24.8239 9.24374 24.8239 9.735H26.8239C26.8239 9.73786 26.8229 9.76676 26.8055 9.80806C26.7877 9.85043 26.7635 9.87986 26.7478 9.89454L25.38 8.43546ZM24.8239 9.735C24.8239 10.2224 24.9981 10.6915 25.38 11.0495L26.7478 9.59046C26.7681 9.60942 26.7925 9.64119 26.8091 9.68169C26.8249 9.72019 26.8239 9.74275 26.8239 9.735H24.8239ZM25.4023 11.0698C25.8072 11.4271 26.3053 11.545 26.7689 11.545V9.545C26.7006 9.545 26.6723 9.53629 26.6717 9.53609C26.6717 9.53609 26.6734 9.53663 26.6765 9.53796C26.6796 9.5393 26.684 9.54135 26.6892 9.54428C26.7002 9.55037 26.7128 9.55898 26.7255 9.57016L25.4023 11.0698ZM31.4143 12H30.4143V13H31.4143V12ZM31.4143 4.65V3.65H30.4143V4.65H31.4143ZM33.2143 4.65L34.1676 4.34797L33.9465 3.65H33.2143V4.65ZM33.6943 6.165L33.5932 7.15987L35.1073 7.31385L34.6476 5.86296L33.6943 6.165ZM32.8093 6.075L32.0634 5.40898L30.7576 6.8715L32.7082 7.06987L32.8093 6.075ZM33.6643 5.295L34.2643 6.09501L34.2682 6.09209L33.6643 5.295ZM34.7443 4.695L35.1033 5.62835L35.1136 5.62437L35.1239 5.62017L34.7443 4.695ZM37.1293 4.71L36.6236 5.5727L36.6299 5.57641L36.6363 5.58002L37.1293 4.71ZM37.8193 5.4L36.9438 5.88308L36.9474 5.88964L36.9511 5.89614L37.8193 5.4ZM38.1493 6.36L37.1629 6.5244L37.1652 6.53767L37.1677 6.55087L38.1493 6.36ZM38.2543 12V13H39.2543V12H38.2543ZM35.8243 12H34.8243V13H35.8243V12ZM34.3843 7.065L34.873 7.93758L34.8841 7.93119L34.3843 7.065ZM33.6193 7.665L32.7014 8.06165L33.2854 9.41319L34.3264 8.37211L33.6193 7.665ZM33.0943 6.45V5.45H31.5729L32.1764 6.84665L33.0943 6.45ZM33.8443 6.45H34.8443V5.45H33.8443V6.45ZM33.8443 12V13H34.8443V12H33.8443ZM40.2043 12H39.2043V13H40.2043V12ZM40.0243 7.02L39.2872 7.69573L39.3019 7.71174L39.3172 7.72711L40.0243 7.02ZM38.7943 7.065L39.2684 7.94547L39.2814 7.93852L39.2941 7.93119L38.7943 7.065ZM38.0143 7.665L37.1199 8.11221L37.7404 9.35317L38.7214 8.37211L38.0143 7.665ZM37.2193 6.075L36.4734 5.40898L36.0214 5.91521L36.3249 6.52221L37.2193 6.075ZM38.0743 5.295L38.6743 6.09501L38.6782 6.09209L38.0743 5.295ZM39.1543 4.695L39.5133 5.62835L39.5236 5.62437L39.5339 5.62017L39.1543 4.695ZM41.5393 4.71L42.0324 3.83998L42.0323 3.83998L41.5393 4.71ZM42.2293 5.4L41.3538 5.88308L41.3574 5.88964L41.3611 5.89614L42.2293 5.4ZM42.5593 6.36L41.5729 6.5244L41.5729 6.5244L42.5593 6.36ZM42.6493 12V13H43.6493V12H42.6493ZM32.4143 12V4.65H30.4143V12H32.4143ZM31.4143 5.65H33.2143V3.65H31.4143V5.65ZM32.261 4.95203L32.741 6.46703L34.6476 5.86296L34.1676 4.34797L32.261 4.95203ZM33.7955 5.17013L32.9105 5.08013L32.7082 7.06987L33.5932 7.15987L33.7955 5.17013ZM33.5553 6.74102C33.7584 6.51351 33.9939 6.29786 34.2643 6.095L33.0643 4.495C32.6948 4.77214 32.3603 5.07649 32.0634 5.40898L33.5553 6.74102ZM34.2682 6.09209C34.5227 5.89931 34.8001 5.74496 35.1033 5.62835L34.3854 3.76165C33.9086 3.94504 33.466 4.19069 33.0605 4.49791L34.2682 6.09209ZM35.1239 5.62017C35.391 5.51059 35.6718 5.455 35.9743 5.455V3.455C35.4168 3.455 34.8777 3.55941 34.3648 3.76983L35.1239 5.62017ZM35.9743 5.455C36.3484 5.455 36.5389 5.52306 36.6236 5.5727L37.6351 3.8473C37.1397 3.55694 36.5603 3.455 35.9743 3.455V5.455ZM36.6363 5.58002C36.7824 5.66281 36.8768 5.76178 36.9438 5.88308L38.6949 4.91692C38.4418 4.45822 38.0763 4.09719 37.6223 3.83998L36.6363 5.58002ZM36.9511 5.89614C37.0452 6.06082 37.1199 6.26588 37.1629 6.5244L39.1357 6.1956C39.0588 5.73412 38.9135 5.29918 38.6876 4.90386L36.9511 5.89614ZM37.1677 6.55087C37.2247 6.84415 37.2543 7.15504 37.2543 7.485H39.2543C39.2543 7.03496 39.2139 6.59585 39.131 6.16913L37.1677 6.55087ZM37.2543 7.485V12H39.2543V7.485H37.2543ZM38.2543 11H35.8243V13H38.2543V11ZM36.8243 12V7.77H34.8243V12H36.8243ZM36.8243 7.77C36.8243 7.53499 36.8065 7.29248 36.7517 7.06413C36.6992 6.84539 36.5926 6.55402 36.3514 6.31289L34.9372 7.72711C34.874 7.66387 34.84 7.605 34.8239 7.57184C34.8079 7.53913 34.8049 7.52219 34.8069 7.53087C34.8089 7.53881 34.8136 7.56191 34.8176 7.60418C34.8216 7.64592 34.8243 7.7006 34.8243 7.77H36.8243ZM36.3514 6.31289C36.0207 5.98219 35.5999 5.84 35.1793 5.84V7.84C35.1684 7.84 35.13 7.83804 35.0771 7.81757C35.022 7.79625 34.9735 7.7634 34.9372 7.72711L36.3514 6.31289ZM35.1793 5.84C34.7149 5.84 34.2792 5.97118 33.8846 6.19881L34.8841 7.93119C35.0095 7.85882 35.1038 7.84 35.1793 7.84V5.84ZM33.8957 6.19249C33.5468 6.38792 33.2198 6.65034 32.9122 6.95789L34.3264 8.37211C34.5389 8.15966 34.7219 8.02208 34.8729 7.93751L33.8957 6.19249ZM34.5373 7.26835L34.0123 6.05335L32.1764 6.84665L32.7014 8.06165L34.5373 7.26835ZM33.0943 7.45H33.8443V5.45H33.0943V7.45ZM32.8443 6.45V12H34.8443V6.45H32.8443ZM33.8443 11H31.4143V13H33.8443V11ZM41.2043 12V7.77H39.2043V12H41.2043ZM41.2043 7.77C41.2043 7.53499 41.1865 7.29248 41.1317 7.06413C41.0792 6.84539 40.9726 6.55402 40.7314 6.31289L39.3172 7.72711C39.254 7.66387 39.22 7.605 39.2039 7.57184C39.1879 7.53912 39.1849 7.52219 39.1869 7.53087C39.1889 7.53881 39.1936 7.56191 39.1976 7.60418C39.2016 7.64592 39.2043 7.7006 39.2043 7.77H41.2043ZM40.7615 6.34427C40.43 5.98264 39.9933 5.84 39.5743 5.84V7.84C39.5641 7.84 39.5199 7.83826 39.4579 7.81348C39.3925 7.7873 39.3328 7.74548 39.2872 7.69573L40.7615 6.34427ZM39.5743 5.84C39.1134 5.84 38.6828 5.97487 38.2946 6.19881L39.2941 7.93119C39.4259 7.85513 39.5153 7.84 39.5743 7.84V5.84ZM38.3202 6.18453C37.9566 6.38035 37.6199 6.64518 37.3072 6.95789L38.7214 8.37211C38.9287 8.16482 39.1121 8.02965 39.2684 7.94547L38.3202 6.18453ZM38.9088 7.21779L38.1138 5.62779L36.3249 6.52221L37.1199 8.11221L38.9088 7.21779ZM37.9653 6.74102C38.1684 6.51351 38.4039 6.29786 38.6743 6.095L37.4743 4.495C37.1048 4.77214 36.7703 5.07649 36.4734 5.40898L37.9653 6.74102ZM38.6782 6.09209C38.9327 5.89931 39.2101 5.74496 39.5133 5.62835L38.7954 3.76165C38.3186 3.94504 37.876 4.19069 37.4705 4.49791L38.6782 6.09209ZM39.5339 5.62017C39.8039 5.50939 40.08 5.455 40.3693 5.455V3.455C39.8187 3.455 39.2848 3.56061 38.7748 3.76983L39.5339 5.62017ZM40.3693 5.455C40.7409 5.455 40.9442 5.52216 41.0463 5.58002L42.0323 3.83998C41.5345 3.55784 40.9577 3.455 40.3693 3.455V5.455ZM41.0463 5.58002C41.1924 5.66281 41.2868 5.76178 41.3538 5.88308L43.1049 4.91692C42.8518 4.45822 42.4863 4.09719 42.0324 3.83998L41.0463 5.58002ZM41.3611 5.89614C41.4552 6.06082 41.5299 6.26588 41.5729 6.5244L43.5457 6.1956C43.4688 5.73412 43.3235 5.29918 43.0976 4.90386L41.3611 5.89614ZM41.5729 6.5244C41.6233 6.82651 41.6493 7.14635 41.6493 7.485H43.6493C43.6493 7.04365 43.6154 6.61349 43.5457 6.1956L41.5729 6.5244ZM41.6493 7.485V12H43.6493V7.485H41.6493ZM42.6493 11H40.2043V13H42.6493V11ZM46.488 11.73L45.9374 12.5648L45.9455 12.57L46.488 11.73ZM45.378 10.395L44.4655 10.8041L44.4685 10.8106L44.4715 10.817L45.378 10.395ZM45.378 6.195L46.2879 6.61001L46.2906 6.60406L45.378 6.195ZM46.473 4.89L45.9479 4.03896L45.9479 4.03896L46.473 4.89ZM49.878 4.95L49.3348 5.7896L49.3422 5.79433L49.878 4.95ZM51.093 6.33L50.1956 6.77113L50.1986 6.77721L51.093 6.33ZM51.093 10.32L50.1955 9.87884L50.1896 9.89126L51.093 10.32ZM49.908 11.7L49.3648 10.8604L49.3572 10.8654L49.908 11.7ZM43.968 12H42.968V13H43.968V12ZM43.968 1.785V0.784999H42.968V1.785H43.968ZM46.398 1.785H47.398V0.784999H46.398V1.785ZM46.398 6.825V7.825H47.398V6.825H46.398ZM46.263 6.825V5.825H45.263V6.825H46.263ZM46.263 9.99H45.263V10.99H46.263V9.99ZM46.398 9.99L47.3523 10.2891L47.7594 8.99H46.398V9.99ZM45.768 12V13H46.5026L46.7223 12.2991L45.768 12ZM48.648 9.435L47.9162 8.75358L47.9153 8.75455L48.648 9.435ZM48.648 7.23L47.8924 7.88493L47.904 7.89839L47.9162 7.91142L48.648 7.23ZM46.683 7.23L47.4149 7.91142L47.4207 7.90524L47.4263 7.89896L46.683 7.23ZM46.683 9.435L45.9512 10.1164L45.9571 10.1228L45.9632 10.1291L46.683 9.435ZM48.153 11.195C47.695 11.195 47.3325 11.085 47.0306 10.89L45.9455 12.57C46.6036 12.995 47.3511 13.195 48.153 13.195V11.195ZM47.0386 10.8952C46.7435 10.7005 46.4874 10.4085 46.2846 9.97297L44.4715 10.817C44.8087 11.5415 45.2926 12.1395 45.9375 12.5648L47.0386 10.8952ZM46.2906 9.98594C46.1011 9.56332 45.988 9.0193 45.988 8.325H43.988C43.988 9.2307 44.135 10.0667 44.4655 10.8041L46.2906 9.98594ZM45.988 8.325C45.988 7.56994 46.1045 7.012 46.2879 6.61L44.4682 5.77999C44.1316 6.518 43.988 7.38005 43.988 8.325H45.988ZM46.2906 6.60406C46.4813 6.17845 46.7233 5.9106 46.9982 5.74104L45.9479 4.03896C45.2827 4.4494 44.7947 5.05155 44.4655 5.78594L46.2906 6.60406ZM46.9982 5.74104C47.2866 5.56305 47.6535 5.455 48.138 5.455V3.455C47.3426 3.455 46.5995 3.63695 45.9479 4.03896L46.9982 5.74104ZM48.138 5.455C48.6094 5.455 48.9981 5.57171 49.3348 5.78957L50.4213 4.11043C49.738 3.66829 48.9667 3.455 48.138 3.455V5.455ZM49.3422 5.79433C49.6963 6.01905 49.9811 6.33463 50.1956 6.77112L51.9905 5.88888C51.625 5.14537 51.0998 4.54095 50.4139 4.10567L49.3422 5.79433ZM50.1986 6.77721C50.4091 7.19812 50.528 7.70591 50.528 8.325H52.528C52.528 7.44409 52.357 6.62188 51.9875 5.88279L50.1986 6.77721ZM50.528 8.325C50.528 8.93141 50.4101 9.44252 50.1956 9.87888L51.9905 10.7611C52.356 10.0175 52.528 9.19859 52.528 8.325H50.528ZM50.1896 9.89126C49.983 10.3266 49.7072 10.6389 49.3648 10.8604L50.4513 12.5396C51.1289 12.1011 51.6431 11.4934 51.9965 10.7487L50.1896 9.89126ZM49.3572 10.8654C49.0396 11.075 48.6512 11.195 48.153 11.195V13.195C48.9949 13.195 49.7765 12.985 50.4589 12.5346L49.3572 10.8654ZM44.968 12V1.785H42.968V12H44.968ZM43.968 2.785H46.398V0.784999H43.968V2.785ZM45.398 1.785V6.825H47.398V1.785H45.398ZM46.398 5.825H46.263V7.825H46.398V5.825ZM45.263 6.825V9.99H47.263V6.825H45.263ZM46.263 10.99H46.398V8.99H46.263V10.99ZM45.4438 9.69091L44.8138 11.7009L46.7223 12.2991L47.3523 10.2891L45.4438 9.69091ZM45.768 11H43.968V13H45.768V11ZM47.673 10.855C48.3346 10.855 48.9272 10.6039 49.3808 10.1155L47.9153 8.75455C47.8489 8.82605 47.7915 8.855 47.673 8.855V10.855ZM49.3799 10.1164C49.8459 9.61597 50.053 8.99092 50.053 8.325H48.053C48.053 8.55908 47.9902 8.67403 47.9162 8.75358L49.3799 10.1164ZM50.053 8.325C50.053 7.6624 49.8418 7.04468 49.3799 6.54858L47.9162 7.91142C47.9943 7.99532 48.053 8.1076 48.053 8.325H50.053ZM49.4037 6.57507C48.9577 6.06042 48.359 5.78 47.673 5.78V7.78C47.7671 7.78 47.8184 7.79958 47.8924 7.88493L49.4037 6.57507ZM47.673 5.78C46.9885 5.78 46.3919 6.05868 45.9398 6.56104L47.4263 7.89896C47.5142 7.80132 47.5776 7.78 47.673 7.78V5.78ZM45.9512 6.54858C45.4893 7.04468 45.278 7.6624 45.278 8.325H47.278C47.278 8.1076 47.3368 7.99532 47.4149 7.91142L45.9512 6.54858ZM45.278 8.325C45.278 8.99092 45.4852 9.61597 45.9512 10.1164L47.4149 8.75358C47.3409 8.67403 47.278 8.55908 47.278 8.325H45.278ZM45.9632 10.1291C46.4222 10.6052 47.0123 10.855 47.673 10.855V8.855C47.5538 8.855 47.4839 8.82483 47.4029 8.74086L45.9632 10.1291ZM52.4202 12H51.4202V13H52.4202V12ZM52.4202 1.785V0.784999H51.4202V1.785H52.4202ZM54.8502 1.785H55.8502V0.784999H54.8502V1.785ZM54.8502 12V13H55.8502V12H54.8502ZM56.9802 12H55.9802V13H56.9802V12ZM56.8002 7.02L56.0931 7.72711L56.0931 7.72711L56.8002 7.02ZM55.7352 6.945L56.0363 7.89858L56.0588 7.89149L56.0809 7.88334L55.7352 6.945ZM55.1652 7.23L55.7199 8.06211L55.7299 8.05531L55.1652 7.23ZM54.6252 7.665L53.7342 8.11893L54.3406 9.3093L55.3118 8.39201L54.6252 7.665ZM53.8152 6.075L53.0693 5.40898L52.6136 5.91932L52.9242 6.52893L53.8152 6.075ZM54.6852 5.295L55.2734 6.10375L55.2776 6.10065L54.6852 5.295ZM55.7802 4.695L56.1392 5.62843L56.1516 5.62348L55.7802 4.695ZM58.2402 4.71L58.721 3.83319L58.721 3.83319L58.2402 4.71ZM58.9602 5.4L58.0975 5.90572L58.1014 5.91238L58.1054 5.91898L58.9602 5.4ZM59.3052 6.36L58.3188 6.5244L58.321 6.53767L58.3236 6.55087L59.3052 6.36ZM59.4102 12V13H60.4102V12H59.4102ZM53.4202 12V1.785H51.4202V12H53.4202ZM52.4202 2.785H54.8502V0.784999H52.4202V2.785ZM53.8502 1.785V12H55.8502V1.785H53.8502ZM54.8502 11H52.4202V13H54.8502V11ZM57.9802 12V7.77H55.9802V12H57.9802ZM57.9802 7.77C57.9802 7.53499 57.9624 7.29248 57.9076 7.06413C57.8551 6.84539 57.7484 6.55402 57.5073 6.31289L56.0931 7.72711C56.0299 7.66387 55.9958 7.605 55.9797 7.57184C55.9638 7.53913 55.9607 7.52219 55.9628 7.53087C55.9647 7.53881 55.9694 7.56191 55.9735 7.60418C55.9774 7.64592 55.9802 7.7006 55.9802 7.77H57.9802ZM57.5073 6.31289C57.1409 5.94651 56.6736 5.84 56.2752 5.84V7.84C56.3056 7.84 56.2934 7.84423 56.2546 7.83095C56.2112 7.81606 56.1503 7.78429 56.0931 7.72711L57.5073 6.31289ZM56.2752 5.84C55.9671 5.84 55.6696 5.90347 55.3895 6.00666L56.0809 7.88334C56.1808 7.84653 56.2433 7.84 56.2752 7.84V5.84ZM55.4341 5.99142C55.1372 6.08518 54.8593 6.22765 54.6005 6.40469L55.7299 8.05531C55.8511 7.97235 55.9532 7.92482 56.0363 7.89858L55.4341 5.99142ZM54.6105 6.39795C54.3775 6.55327 54.1538 6.73474 53.9386 6.93799L55.3118 8.39201C55.4566 8.25526 55.5929 8.14673 55.7199 8.06205L54.6105 6.39795ZM55.5162 7.21107L54.7062 5.62107L52.9242 6.52893L53.7342 8.11893L55.5162 7.21107ZM54.5611 6.74102C54.7599 6.51843 54.9959 6.3055 55.2734 6.10374L54.097 4.48626C53.7144 4.7645 53.3705 5.07157 53.0693 5.40898L54.5611 6.74102ZM55.2776 6.10065C55.5465 5.90289 55.8332 5.74605 56.1392 5.62835L55.4212 3.76165C54.9472 3.94395 54.5039 4.18711 54.0928 4.48935L55.2776 6.10065ZM56.1516 5.62348C56.4309 5.51174 56.7246 5.455 57.0402 5.455V3.455C56.4757 3.455 55.9295 3.55826 55.4088 3.76652L56.1516 5.62348ZM57.0402 5.455C57.4237 5.455 57.6427 5.52282 57.7594 5.58681L58.721 3.83319C58.2177 3.55718 57.6367 3.455 57.0402 3.455V5.455ZM57.7594 5.58681C57.9194 5.67459 58.0237 5.77987 58.0975 5.90572L59.8229 4.89428C59.5567 4.44013 59.181 4.08541 58.721 3.83319L57.7594 5.58681ZM58.1054 5.91898C58.2023 6.07849 58.2773 6.27558 58.3188 6.5244L60.2916 6.1956C60.2131 5.72442 60.0581 5.28151 59.815 4.88102L58.1054 5.91898ZM58.3236 6.55087C58.3806 6.84415 58.4102 7.15504 58.4102 7.485H60.4102C60.4102 7.03496 60.3698 6.59585 60.2868 6.16913L58.3236 6.55087ZM58.4102 7.485V12H60.4102V7.485H58.4102ZM59.4102 11H56.9802V13H59.4102V11ZM66.377 8.025V7.025H65.377V8.025H66.377ZM70.937 8.025H71.937V7.025H70.937V8.025ZM70.937 10.275V11.275H71.937V10.275H70.937ZM66.377 10.275H65.377V11.275H66.377V10.275ZM64.037 12L63.0943 11.6664L62.6223 13H64.037V12ZM67.652 1.785V0.784999H66.9451L66.7093 1.45138L67.652 1.785ZM70.217 1.785L71.1669 1.47254L70.9408 0.784999H70.217V1.785ZM73.577 12V13H74.9586L74.5269 11.6875L73.577 12ZM71.132 12L70.1765 12.295L70.3942 13H71.132V12ZM68.492 3.45V2.45H67.1366L67.5365 3.74503L68.492 3.45ZM69.377 3.45L70.3237 3.7722L70.7737 2.45H69.377V3.45ZM66.467 12V13H67.183L67.4137 12.3222L66.467 12ZM66.377 9.025H70.937V7.025H66.377V9.025ZM69.937 8.025V10.275H71.937V8.025H69.937ZM70.937 9.275H66.377V11.275H70.937V9.275ZM67.377 10.275V8.025H65.377V10.275H67.377ZM64.9797 12.3336L68.5947 2.11862L66.7093 1.45138L63.0943 11.6664L64.9797 12.3336ZM67.652 2.785H70.217V0.784999H67.652V2.785ZM69.2671 2.09746L72.6271 12.3125L74.5269 11.6875L71.1669 1.47254L69.2671 2.09746ZM73.577 11H71.132V13H73.577V11ZM72.0875 11.705L69.4475 3.15497L67.5365 3.74503L70.1765 12.295L72.0875 11.705ZM68.492 4.45H69.377V2.45H68.492V4.45ZM68.4303 3.1278L65.5203 11.6778L67.4137 12.3222L70.3237 3.7722L68.4303 3.1278ZM66.467 11H64.037V13H66.467V11ZM76.8675 12V13H77.8675V12H76.8675ZM74.4225 12H73.4225V13H74.4225V12ZM74.4225 4.65V3.65H73.4225V4.65H74.4225ZM76.8675 4.65H77.8675V3.65H76.8675V4.65ZM74.6325 1.305L75.3256 2.02583L75.3327 2.01904L75.3396 2.01211L74.6325 1.305ZM76.6725 1.305L75.9517 1.99811L75.9585 2.00517L75.9654 2.01211L76.6725 1.305ZM76.6725 3.33L77.3796 4.03711L77.3865 4.03017L77.3933 4.02311L76.6725 3.33ZM74.6325 3.33L73.9254 4.03711L73.9323 4.04404L73.9394 4.05083L74.6325 3.33ZM76.8675 11H74.4225V13H76.8675V11ZM75.4225 12V4.65H73.4225V12H75.4225ZM74.4225 5.65H76.8675V3.65H74.4225V5.65ZM75.8675 4.65V12H77.8675V4.65H75.8675ZM75.2425 2.325C75.2425 2.11061 75.2989 2.05148 75.3256 2.02583L73.9394 0.584167C73.4461 1.05852 73.2425 1.67939 73.2425 2.325H75.2425ZM75.3396 2.01211C75.3849 1.96677 75.4567 1.915 75.6525 1.915V-0.0850003C75.0083 -0.0850003 74.4001 0.12323 73.9254 0.597892L75.3396 2.01211ZM75.6525 1.915C75.8669 1.915 75.926 1.97144 75.9517 1.99811L77.3933 0.61189C76.919 0.118564 76.2981 -0.0850003 75.6525 -0.0850003V1.915ZM75.9654 2.01211C75.9887 2.03537 76.0475 2.0991 76.0475 2.325H78.0475C78.0475 1.6909 77.8563 1.07463 77.3796 0.597893L75.9654 2.01211ZM76.0475 2.325C76.0475 2.51478 75.9977 2.58901 75.9517 2.63689L77.3933 4.02311C77.8473 3.55099 78.0475 2.95522 78.0475 2.325H76.0475ZM75.9654 2.62289C75.9421 2.64616 75.8784 2.705 75.6525 2.705V4.705C76.2866 4.705 76.9029 4.51384 77.3796 4.03711L75.9654 2.62289ZM75.6525 2.705C75.4453 2.705 75.3688 2.65073 75.3256 2.60917L73.9394 4.05083C74.4162 4.50926 75.0197 4.705 75.6525 4.705V2.705ZM75.3396 2.62289C75.2895 2.57279 75.2425 2.50318 75.2425 2.325H73.2425C73.2425 2.96682 73.4555 3.56721 73.9254 4.03711L75.3396 2.62289Z" fill="black" mask="url(#path-1-outside-1_3_2)"/>
</svg>
